# xmcd CD database file
#
# Track frame offsets:
#	150
#	52219
#	108594
#	164781
#	219465
#	274744
#
# Disc length: 4411 seconds
#
# Revision: 0
# Processed by: cddbd v1.5.2PL0 Copyright (c) Steve Scherf et al.
# Submitted via: CDex 1.79
#
DISCID=5f113906
DTITLE=Bohren and der Club of Gore - Midnight Radio CD2
DYEAR=1995
DGENRE=Jazz
TTITLE0=06
TTITLE1=07
TTITLE2=08
TTITLE3=09
TTITLE4=10
TTITLE5=11
EXTD=YEAR: 1995
EXTT0=
EXTT1=
EXTT2=
EXTT3=
EXTT4=
EXTT5=
PLAYORDER=
